<svg width="1280" height="640" viewBox="0 0 1280 640" fill="none" xmlns="http://www.w3.org/2000/svg">
<rect width="1280" height="640" fill="white"/>
<path opacity="0.88" d="M19.2345 133.58L26.7299 133.053L27.0921 127.851L19.2913 128.929L19.2345 133.58Z" fill="#E38585"/>
<path opacity="0.87" d="M541.109 102.544L547.127 114.869L556.178 111.925L549.019 99.4597L541.109 102.544Z" fill="#E38585"/>
<path opacity="0.99" d="M1091.59 45.3724L1089.32 58.2936L1097.98 61.1044L1099.45 47.433L1091.59 45.3724Z" fill="#E38585"/>
<path opacity="0.85" d="M17.2576 301.061L27.1031 302.091L28.763 295.425L18.3952 295.04L17.2576 301.061Z" fill="#E38585"/>
<path opacity="0.89" d="M801.58 348.62L803.978 355.992L809.276 355.056L806.25 347.516L801.58 348.62Z" fill="#E38585"/>
<path opacity="0.76" d="M1052.18 241.337L1058.56 231.119L1052.15 225.747L1046.2 236.881L1052.18 241.337Z" fill="#E38585"/>
<path opacity="0.71" d="M183.46 553.312L194.445 554.851L196.564 547.451L184.969 546.614L183.46 553.312Z" fill="#E38585"/>
<path opacity="0.88" d="M686.467 521.834L699.138 518.433L698.026 509.397L685.015 513.844L686.467 521.834Z" fill="#E38585"/>
<path opacity="0.88" d="M993.257 583.041L985.208 584.756L985.608 590.452L993.905 588.094L993.257 583.041Z" fill="#E38585"/>
<path opacity="0.8" d="M329.276 33.1449L337.509 28.7628L335.294 22.6816L326.993 27.8427L329.276 33.1449Z" fill="#8785E3"/>
<path opacity="0.77" d="M645.104 162.163L647.66 151.07L640.284 148.241L638.391 160.021L645.104 162.163Z" fill="#8785E3"/>
<path opacity="0.94" d="M1230.1 100.949L1234.83 110.235L1241.67 107.878L1236.07 98.5006L1230.1 100.949Z" fill="#8785E3"/>
<path opacity="0.74" d="M337.884 247.78L331.744 239.019L325.13 242.391L332.167 251.121L337.884 247.78Z" fill="#8785E3"/>
<path opacity="0.93" d="M659.47 260.883L653.293 254.265L648.149 257.87L655.073 264.356L659.47 260.883Z" fill="#8785E3"/>
<path opacity="0.95" d="M1186.24 280.341L1191.17 271.787L1185.77 267.569L1181.21 276.861L1186.24 280.341Z" fill="#8785E3"/>
<path opacity="0.81" d="M80.4164 487.105L69.2315 488.285L68.9614 496.085L80.5744 494.065L80.4164 487.105Z" fill="#8785E3"/>
<path opacity="0.77" d="M568.48 417.452L572.911 410.355L568.462 406.624L564.328 414.357L568.48 417.452Z" fill="#8785E3"/>
<path opacity="0.84" d="M986.847 539.137L989.296 547.137L995.031 546.227L991.907 538.033L986.847 539.137Z" fill="#8785E3"/>
<path opacity="0.91" d="M136.911 40.0741L127.021 46.5026L130.482 53.9201L140.372 46.5026L136.911 40.0741Z" fill="#85E399"/>
<path opacity="0.9" d="M718.354 109.61L709.801 99.7798L702.22 104.707L711.854 114.385L718.354 109.61Z" fill="#85E399"/>
<path opacity="0.73" d="M1000.19 152.831L1009.93 152.997L1010.98 146.322L1000.79 146.833L1000.19 152.831Z" fill="#85E399"/>
<path opacity="0.71" d="M148.059 255.134L140.079 264.005L145.403 270.347L153.125 260.51L148.059 255.134Z" fill="#85E399"/>
<path opacity="0.88" d="M549.651 355.93L538.369 352.486L534.912 359.905L546.952 362.713L549.651 355.93Z" fill="#85E399"/>
<path opacity="0.82" d="M1005.22 171.547L993.722 180.219L998.57 188.959L1009.98 179.082L1005.22 171.547Z" fill="#85E399"/>
<path opacity="0.94" d="M53.8463 587.333L46.4958 577.933L39.3258 582.075L47.673 591.388L53.8463 587.333Z" fill="#85E399"/>
<path opacity="0.89" d="M802.301 463.49L793.1 459.205L789.266 465.113L799.188 468.947L802.301 463.49Z" fill="#85E399"/>
<path opacity="0.77" d="M1097.53 540.912L1086.18 542.918L1086.47 550.908L1098.19 548.013L1097.53 540.912Z" fill="#85E399"/>
<g filter="url(#filter0_d_3_66)">
<circle cx="264.5" cy="319.5" r="164.5" fill="#F9F9F9"/>
</g>
<g filter="url(#filter1_i_3_66)">
<path d="M360.345 240.649L383.457 217.537H169.335V422.143H383.457L360.345 399.031H192.446V310.663H319.56L341.992 297.068L319.56 284.153H192.446V240.649H360.345Z" fill="black"/>
</g>
<g filter="url(#filter2_d_3_66)">
<path d="M488.432 190.898V208.14H507.228V213.69H488.432V231.45H509.448V237H481.698V185.348H509.448V190.898H488.432ZM526.371 203.922C527.703 201.603 529.677 199.679 532.291 198.15C534.955 196.571 538.039 195.782 541.541 195.782C545.143 195.782 548.399 196.645 551.309 198.372C554.269 200.099 556.588 202.541 558.265 205.698C559.943 208.806 560.781 212.432 560.781 216.576C560.781 220.671 559.943 224.321 558.265 227.528C556.588 230.735 554.269 233.226 551.309 235.002C548.399 236.778 545.143 237.666 541.541 237.666C538.088 237.666 535.029 236.901 532.365 235.372C529.751 233.793 527.753 231.845 526.371 229.526V256.24H519.637V196.448H526.371V203.922ZM553.899 216.576C553.899 213.517 553.283 210.853 552.049 208.584C550.816 206.315 549.139 204.588 547.017 203.404C544.945 202.22 542.651 201.628 540.135 201.628C537.669 201.628 535.375 202.245 533.253 203.478C531.181 204.662 529.504 206.413 528.221 208.732C526.988 211.001 526.371 213.641 526.371 216.65C526.371 219.709 526.988 222.397 528.221 224.716C529.504 226.985 531.181 228.737 533.253 229.97C535.375 231.154 537.669 231.746 540.135 231.746C542.651 231.746 544.945 231.154 547.017 229.97C549.139 228.737 550.816 226.985 552.049 224.716C553.283 222.397 553.899 219.684 553.899 216.576ZM584.001 237.666C580.893 237.666 578.106 237.148 575.639 236.112C573.173 235.027 571.224 233.547 569.793 231.672C568.363 229.748 567.573 227.553 567.425 225.086H574.381C574.579 227.109 575.516 228.761 577.193 230.044C578.92 231.327 581.165 231.968 583.927 231.968C586.493 231.968 588.515 231.401 589.995 230.266C591.475 229.131 592.215 227.701 592.215 225.974C592.215 224.198 591.426 222.891 589.847 222.052C588.269 221.164 585.827 220.301 582.521 219.462C579.512 218.673 577.045 217.883 575.121 217.094C573.247 216.255 571.619 215.047 570.237 213.468C568.905 211.84 568.239 209.719 568.239 207.104C568.239 205.032 568.856 203.133 570.089 201.406C571.323 199.679 573.074 198.323 575.343 197.336C577.613 196.3 580.203 195.782 583.113 195.782C587.603 195.782 591.229 196.917 593.991 199.186C596.754 201.455 598.234 204.563 598.431 208.51H591.697C591.549 206.389 590.686 204.687 589.107 203.404C587.578 202.121 585.506 201.48 582.891 201.48C580.474 201.48 578.55 201.998 577.119 203.034C575.689 204.07 574.973 205.427 574.973 207.104C574.973 208.436 575.393 209.546 576.231 210.434C577.119 211.273 578.205 211.963 579.487 212.506C580.819 212.999 582.645 213.567 584.963 214.208C587.874 214.997 590.242 215.787 592.067 216.576C593.893 217.316 595.447 218.451 596.729 219.98C598.061 221.509 598.752 223.507 598.801 225.974C598.801 228.194 598.185 230.192 596.951 231.968C595.718 233.744 593.967 235.15 591.697 236.186C589.477 237.173 586.912 237.666 584.001 237.666ZM625.993 237.666C622.195 237.666 618.741 236.803 615.633 235.076C612.575 233.349 610.157 230.907 608.381 227.75C606.655 224.543 605.791 220.843 605.791 216.65C605.791 212.506 606.679 208.855 608.455 205.698C610.281 202.491 612.747 200.049 615.855 198.372C618.963 196.645 622.441 195.782 626.289 195.782C630.137 195.782 633.615 196.645 636.723 198.372C639.831 200.049 642.273 202.467 644.049 205.624C645.875 208.781 646.787 212.457 646.787 216.65C646.787 220.843 645.85 224.543 643.975 227.75C642.15 230.907 639.659 233.349 636.501 235.076C633.344 236.803 629.841 237.666 625.993 237.666ZM625.993 231.746C628.411 231.746 630.68 231.179 632.801 230.044C634.923 228.909 636.625 227.207 637.907 224.938C639.239 222.669 639.905 219.906 639.905 216.65C639.905 213.394 639.264 210.631 637.981 208.362C636.699 206.093 635.021 204.415 632.949 203.33C630.877 202.195 628.633 201.628 626.215 201.628C623.749 201.628 621.479 202.195 619.407 203.33C617.385 204.415 615.757 206.093 614.523 208.362C613.29 210.631 612.673 213.394 612.673 216.65C612.673 219.955 613.265 222.743 614.449 225.012C615.683 227.281 617.311 228.983 619.333 230.118C621.356 231.203 623.576 231.746 625.993 231.746ZM675.399 195.708C680.333 195.708 684.329 197.213 687.387 200.222C690.446 203.182 691.975 207.474 691.975 213.098V237H685.315V214.06C685.315 210.015 684.304 206.931 682.281 204.81C680.259 202.639 677.496 201.554 673.993 201.554C670.441 201.554 667.605 202.664 665.483 204.884C663.411 207.104 662.375 210.335 662.375 214.578V237H655.641V196.448H662.375V202.22C663.707 200.148 665.508 198.545 667.777 197.41C670.096 196.275 672.637 195.708 675.399 195.708ZM706.453 189.862C705.171 189.862 704.085 189.418 703.197 188.53C702.309 187.642 701.865 186.557 701.865 185.274C701.865 183.991 702.309 182.906 703.197 182.018C704.085 181.13 705.171 180.686 706.453 180.686C707.687 180.686 708.723 181.13 709.561 182.018C710.449 182.906 710.893 183.991 710.893 185.274C710.893 186.557 710.449 187.642 709.561 188.53C708.723 189.418 707.687 189.862 706.453 189.862ZM709.709 196.448V237H702.975V196.448H709.709ZM718.67 216.576C718.67 212.432 719.509 208.806 721.186 205.698C722.864 202.541 725.158 200.099 728.068 198.372C731.028 196.645 734.309 195.782 737.91 195.782C741.462 195.782 744.546 196.547 747.16 198.076C749.775 199.605 751.724 201.529 753.006 203.848V196.448H759.814V237H753.006V229.452C751.674 231.82 749.676 233.793 747.012 235.372C744.398 236.901 741.339 237.666 737.836 237.666C734.235 237.666 730.979 236.778 728.068 235.002C725.158 233.226 722.864 230.735 721.186 227.528C719.509 224.321 718.67 220.671 718.67 216.576ZM753.006 216.65C753.006 213.591 752.39 210.927 751.156 208.658C749.923 206.389 748.246 204.662 746.124 203.478C744.052 202.245 741.758 201.628 739.242 201.628C736.726 201.628 734.432 202.22 732.36 203.404C730.288 204.588 728.636 206.315 727.402 208.584C726.169 210.853 725.552 213.517 725.552 216.576C725.552 219.684 726.169 222.397 727.402 224.716C728.636 226.985 730.288 228.737 732.36 229.97C734.432 231.154 736.726 231.746 739.242 231.746C741.758 231.746 744.052 231.154 746.124 229.97C748.246 228.737 749.923 226.985 751.156 224.716C752.39 222.397 753.006 219.709 753.006 216.65Z" fill="black"/>
</g>
<g filter="url(#filter3_d_3_66)">
<path d="M490.148 307.252C487.82 307.252 485.696 306.712 483.776 305.632C481.856 304.528 480.332 303.004 479.204 301.06C478.1 299.092 477.548 296.884 477.548 294.436C477.548 291.988 478.1 289.792 479.204 287.848C480.332 285.88 481.856 284.356 483.776 283.276C485.696 282.172 487.82 281.62 490.148 281.62C492.5 281.62 494.636 282.172 496.556 283.276C498.476 284.356 499.988 285.868 501.092 287.812C502.196 289.756 502.748 291.964 502.748 294.436C502.748 296.908 502.196 299.116 501.092 301.06C499.988 303.004 498.476 304.528 496.556 305.632C494.636 306.712 492.5 307.252 490.148 307.252ZM490.148 304.408C491.9 304.408 493.472 304 494.864 303.184C496.28 302.368 497.384 301.204 498.176 299.692C498.992 298.18 499.4 296.428 499.4 294.436C499.4 292.42 498.992 290.668 498.176 289.18C497.384 287.668 496.292 286.504 494.9 285.688C493.508 284.872 491.924 284.464 490.148 284.464C488.372 284.464 486.788 284.872 485.396 285.688C484.004 286.504 482.9 287.668 482.084 289.18C481.292 290.668 480.896 292.42 480.896 294.436C480.896 296.428 481.292 298.18 482.084 299.692C482.9 301.204 484.004 302.368 485.396 303.184C486.812 304 488.396 304.408 490.148 304.408ZM510.349 290.908C510.997 289.78 511.957 288.844 513.229 288.1C514.525 287.332 516.025 286.948 517.729 286.948C519.481 286.948 521.065 287.368 522.481 288.208C523.921 289.048 525.049 290.236 525.865 291.772C526.681 293.284 527.089 295.048 527.089 297.064C527.089 299.056 526.681 300.832 525.865 302.392C525.049 303.952 523.921 305.164 522.481 306.028C521.065 306.892 519.481 307.324 517.729 307.324C516.049 307.324 514.561 306.952 513.265 306.208C511.993 305.44 511.021 304.492 510.349 303.364V316.36H507.073V287.272H510.349V290.908ZM523.741 297.064C523.741 295.576 523.441 294.28 522.841 293.176C522.241 292.072 521.425 291.232 520.393 290.656C519.385 290.08 518.269 289.792 517.045 289.792C515.845 289.792 514.729 290.092 513.697 290.692C512.689 291.268 511.873 292.12 511.249 293.248C510.649 294.352 510.349 295.636 510.349 297.1C510.349 298.588 510.649 299.896 511.249 301.024C511.873 302.128 512.689 302.98 513.697 303.58C514.729 304.156 515.845 304.444 517.045 304.444C518.269 304.444 519.385 304.156 520.393 303.58C521.425 302.98 522.241 302.128 522.841 301.024C523.441 299.896 523.741 298.576 523.741 297.064ZM549.401 296.38C549.401 297.004 549.365 297.664 549.293 298.36H533.525C533.645 300.304 534.305 301.828 535.505 302.932C536.729 304.012 538.205 304.552 539.933 304.552C541.349 304.552 542.525 304.228 543.461 303.58C544.421 302.908 545.093 302.02 545.477 300.916H549.005C548.477 302.812 547.421 304.36 545.837 305.56C544.253 306.736 542.285 307.324 539.933 307.324C538.061 307.324 536.381 306.904 534.893 306.064C533.429 305.224 532.277 304.036 531.437 302.5C530.597 300.94 530.177 299.14 530.177 297.1C530.177 295.06 530.585 293.272 531.401 291.736C532.217 290.2 533.357 289.024 534.821 288.208C536.309 287.368 538.013 286.948 539.933 286.948C541.805 286.948 543.461 287.356 544.901 288.172C546.341 288.988 547.445 290.116 548.213 291.556C549.005 292.972 549.401 294.58 549.401 296.38ZM546.017 295.696C546.017 294.448 545.741 293.38 545.189 292.492C544.637 291.58 543.881 290.896 542.921 290.44C541.985 289.96 540.941 289.72 539.789 289.72C538.133 289.72 536.717 290.248 535.541 291.304C534.389 292.36 533.729 293.824 533.561 295.696H546.017ZM563.337 286.912C565.737 286.912 567.681 287.644 569.169 289.108C570.657 290.548 571.401 292.636 571.401 295.372V307H568.161V295.84C568.161 293.872 567.669 292.372 566.685 291.34C565.701 290.284 564.357 289.756 562.653 289.756C560.925 289.756 559.545 290.296 558.513 291.376C557.505 292.456 557.001 294.028 557.001 296.092V307H553.725V287.272H557.001V290.08C557.649 289.072 558.525 288.292 559.629 287.74C560.757 287.188 561.993 286.912 563.337 286.912ZM590.432 292.42V295.192H576.068V292.42H590.432ZM604.537 307.252C602.881 307.252 601.393 306.964 600.073 306.388C598.777 305.788 597.757 304.972 597.013 303.94C596.269 302.884 595.885 301.672 595.861 300.304H599.353C599.473 301.48 599.953 302.476 600.793 303.292C601.657 304.084 602.905 304.48 604.537 304.48C606.097 304.48 607.321 304.096 608.209 303.328C609.121 302.536 609.577 301.528 609.577 300.304C609.577 299.344 609.313 298.564 608.785 297.964C608.257 297.364 607.597 296.908 606.805 296.596C606.013 296.284 604.945 295.948 603.601 295.588C601.945 295.156 600.613 294.724 599.605 294.292C598.621 293.86 597.769 293.188 597.049 292.276C596.353 291.34 596.005 290.092 596.005 288.532C596.005 287.164 596.353 285.952 597.049 284.896C597.745 283.84 598.717 283.024 599.965 282.448C601.237 281.872 602.689 281.584 604.321 281.584C606.673 281.584 608.593 282.172 610.081 283.348C611.593 284.524 612.445 286.084 612.637 288.028H609.037C608.917 287.068 608.413 286.228 607.525 285.508C606.637 284.764 605.461 284.392 603.997 284.392C602.629 284.392 601.513 284.752 600.649 285.472C599.785 286.168 599.353 287.152 599.353 288.424C599.353 289.336 599.605 290.08 600.109 290.656C600.637 291.232 601.273 291.676 602.017 291.988C602.785 292.276 603.853 292.612 605.221 292.996C606.877 293.452 608.209 293.908 609.217 294.364C610.225 294.796 611.089 295.48 611.809 296.416C612.529 297.328 612.889 298.576 612.889 300.16C612.889 301.384 612.565 302.536 611.917 303.616C611.269 304.696 610.309 305.572 609.037 306.244C607.765 306.916 606.265 307.252 604.537 307.252ZM626.314 307.324C624.466 307.324 622.786 306.904 621.274 306.064C619.786 305.224 618.61 304.036 617.746 302.5C616.906 300.94 616.486 299.14 616.486 297.1C616.486 295.084 616.918 293.308 617.782 291.772C618.67 290.212 619.87 289.024 621.382 288.208C622.894 287.368 624.586 286.948 626.458 286.948C628.33 286.948 630.022 287.368 631.534 288.208C633.046 289.024 634.234 290.2 635.098 291.736C635.986 293.272 636.43 295.06 636.43 297.1C636.43 299.14 635.974 300.94 635.062 302.5C634.174 304.036 632.962 305.224 631.426 306.064C629.89 306.904 628.186 307.324 626.314 307.324ZM626.314 304.444C627.49 304.444 628.594 304.168 629.626 303.616C630.658 303.064 631.486 302.236 632.11 301.132C632.758 300.028 633.082 298.684 633.082 297.1C633.082 295.516 632.77 294.172 632.146 293.068C631.522 291.964 630.706 291.148 629.698 290.62C628.69 290.068 627.598 289.792 626.422 289.792C625.222 289.792 624.118 290.068 623.11 290.62C622.126 291.148 621.334 291.964 620.734 293.068C620.134 294.172 619.834 295.516 619.834 297.1C619.834 298.708 620.122 300.064 620.698 301.168C621.298 302.272 622.09 303.1 623.074 303.652C624.058 304.18 625.138 304.444 626.314 304.444ZM658.233 287.272V307H654.957V304.084C654.333 305.092 653.457 305.884 652.329 306.46C651.225 307.012 650.001 307.288 648.657 307.288C647.121 307.288 645.741 306.976 644.517 306.352C643.293 305.704 642.321 304.744 641.601 303.472C640.905 302.2 640.557 300.652 640.557 298.828V287.272H643.797V298.396C643.797 300.34 644.289 301.84 645.273 302.896C646.257 303.928 647.601 304.444 649.305 304.444C651.057 304.444 652.437 303.904 653.445 302.824C654.453 301.744 654.957 300.172 654.957 298.108V287.272H658.233ZM667.04 290.476C667.616 289.348 668.432 288.472 669.488 287.848C670.568 287.224 671.876 286.912 673.412 286.912V290.296H672.548C668.876 290.296 667.04 292.288 667.04 296.272V307H663.764V287.272H667.04V290.476ZM675.97 297.1C675.97 295.06 676.378 293.284 677.194 291.772C678.01 290.236 679.138 289.048 680.578 288.208C682.042 287.368 683.71 286.948 685.582 286.948C688.006 286.948 689.998 287.536 691.558 288.712C693.142 289.888 694.186 291.52 694.69 293.608H691.162C690.826 292.408 690.166 291.46 689.182 290.764C688.222 290.068 687.022 289.72 685.582 289.72C683.71 289.72 682.198 290.368 681.046 291.664C679.894 292.936 679.318 294.748 679.318 297.1C679.318 299.476 679.894 301.312 681.046 302.608C682.198 303.904 683.71 304.552 685.582 304.552C687.022 304.552 688.222 304.216 689.182 303.544C690.142 302.872 690.802 301.912 691.162 300.664H694.69C694.162 302.68 693.106 304.3 691.522 305.524C689.938 306.724 687.958 307.324 685.582 307.324C683.71 307.324 682.042 306.904 680.578 306.064C679.138 305.224 678.01 304.036 677.194 302.5C676.378 300.964 675.97 299.164 675.97 297.1ZM717.061 296.38C717.061 297.004 717.025 297.664 716.953 298.36H701.185C701.305 300.304 701.965 301.828 703.165 302.932C704.389 304.012 705.865 304.552 707.593 304.552C709.009 304.552 710.185 304.228 711.121 303.58C712.081 302.908 712.753 302.02 713.137 300.916H716.665C716.137 302.812 715.081 304.36 713.497 305.56C711.913 306.736 709.945 307.324 707.593 307.324C705.721 307.324 704.041 306.904 702.553 306.064C701.089 305.224 699.937 304.036 699.097 302.5C698.257 300.94 697.837 299.14 697.837 297.1C697.837 295.06 698.245 293.272 699.061 291.736C699.877 290.2 701.017 289.024 702.481 288.208C703.969 287.368 705.673 286.948 707.593 286.948C709.465 286.948 711.121 287.356 712.561 288.172C714.001 288.988 715.105 290.116 715.873 291.556C716.665 292.972 717.061 294.58 717.061 296.38ZM713.677 295.696C713.677 294.448 713.401 293.38 712.849 292.492C712.297 291.58 711.541 290.896 710.581 290.44C709.645 289.96 708.601 289.72 707.449 289.72C705.793 289.72 704.377 290.248 703.201 291.304C702.049 292.36 701.389 293.824 701.221 295.696H713.677ZM738.939 307.252C737.283 307.252 735.795 306.964 734.475 306.388C733.179 305.788 732.159 304.972 731.415 303.94C730.671 302.884 730.287 301.672 730.263 300.304H733.755C733.875 301.48 734.355 302.476 735.195 303.292C736.059 304.084 737.307 304.48 738.939 304.48C740.499 304.48 741.723 304.096 742.611 303.328C743.523 302.536 743.979 301.528 743.979 300.304C743.979 299.344 743.715 298.564 743.187 297.964C742.659 297.364 741.999 296.908 741.207 296.596C740.415 296.284 739.347 295.948 738.003 295.588C736.347 295.156 735.015 294.724 734.007 294.292C733.023 293.86 732.171 293.188 731.451 292.276C730.755 291.34 730.407 290.092 730.407 288.532C730.407 287.164 730.755 285.952 731.451 284.896C732.147 283.84 733.119 283.024 734.367 282.448C735.639 281.872 737.091 281.584 738.723 281.584C741.075 281.584 742.995 282.172 744.483 283.348C745.995 284.524 746.847 286.084 747.039 288.028H743.439C743.319 287.068 742.815 286.228 741.927 285.508C741.039 284.764 739.863 284.392 738.399 284.392C737.031 284.392 735.915 284.752 735.051 285.472C734.187 286.168 733.755 287.152 733.755 288.424C733.755 289.336 734.007 290.08 734.511 290.656C735.039 291.232 735.675 291.676 736.419 291.988C737.187 292.276 738.255 292.612 739.623 292.996C741.279 293.452 742.611 293.908 743.619 294.364C744.627 294.796 745.491 295.48 746.211 296.416C746.931 297.328 747.291 298.576 747.291 300.16C747.291 301.384 746.967 302.536 746.319 303.616C745.671 304.696 744.711 305.572 743.439 306.244C742.167 306.916 740.667 307.252 738.939 307.252ZM750.888 297.1C750.888 295.06 751.296 293.284 752.112 291.772C752.928 290.236 754.056 289.048 755.496 288.208C756.96 287.368 758.628 286.948 760.5 286.948C762.924 286.948 764.916 287.536 766.476 288.712C768.06 289.888 769.104 291.52 769.608 293.608H766.08C765.744 292.408 765.084 291.46 764.1 290.764C763.14 290.068 761.94 289.72 760.5 289.72C758.628 289.72 757.116 290.368 755.964 291.664C754.812 292.936 754.236 294.748 754.236 297.1C754.236 299.476 754.812 301.312 755.964 302.608C757.116 303.904 758.628 304.552 760.5 304.552C761.94 304.552 763.14 304.216 764.1 303.544C765.06 302.872 765.72 301.912 766.08 300.664H769.608C769.08 302.68 768.024 304.3 766.44 305.524C764.856 306.724 762.876 307.324 760.5 307.324C758.628 307.324 756.96 306.904 755.496 306.064C754.056 305.224 752.928 304.036 752.112 302.5C751.296 300.964 750.888 299.164 750.888 297.1ZM782.583 307.324C780.735 307.324 779.055 306.904 777.543 306.064C776.055 305.224 774.879 304.036 774.015 302.5C773.175 300.94 772.755 299.14 772.755 297.1C772.755 295.084 773.187 293.308 774.051 291.772C774.939 290.212 776.139 289.024 777.651 288.208C779.163 287.368 780.855 286.948 782.727 286.948C784.599 286.948 786.291 287.368 787.803 288.208C789.315 289.024 790.503 290.2 791.367 291.736C792.255 293.272 792.699 295.06 792.699 297.1C792.699 299.14 792.243 300.94 791.331 302.5C790.443 304.036 789.231 305.224 787.695 306.064C786.159 306.904 784.455 307.324 782.583 307.324ZM782.583 304.444C783.759 304.444 784.863 304.168 785.895 303.616C786.927 303.064 787.755 302.236 788.379 301.132C789.027 300.028 789.351 298.684 789.351 297.1C789.351 295.516 789.039 294.172 788.415 293.068C787.791 291.964 786.975 291.148 785.967 290.62C784.959 290.068 783.867 289.792 782.691 289.792C781.491 289.792 780.387 290.068 779.379 290.62C778.395 291.148 777.603 291.964 777.003 293.068C776.403 294.172 776.103 295.516 776.103 297.1C776.103 298.708 776.391 300.064 776.967 301.168C777.567 302.272 778.359 303.1 779.343 303.652C780.327 304.18 781.407 304.444 782.583 304.444ZM800.282 290.476C800.858 289.348 801.674 288.472 802.73 287.848C803.81 287.224 805.118 286.912 806.654 286.912V290.296H805.79C802.118 290.296 800.282 292.288 800.282 296.272V307H797.006V287.272H800.282V290.476ZM812.128 284.068C811.504 284.068 810.976 283.852 810.544 283.42C810.112 282.988 809.896 282.46 809.896 281.836C809.896 281.212 810.112 280.684 810.544 280.252C810.976 279.82 811.504 279.604 812.128 279.604C812.728 279.604 813.232 279.82 813.64 280.252C814.072 280.684 814.288 281.212 814.288 281.836C814.288 282.46 814.072 282.988 813.64 283.42C813.232 283.852 812.728 284.068 812.128 284.068ZM813.712 287.272V307H810.436V287.272H813.712ZM828.907 286.912C831.307 286.912 833.251 287.644 834.739 289.108C836.227 290.548 836.971 292.636 836.971 295.372V307H833.731V295.84C833.731 293.872 833.239 292.372 832.255 291.34C831.271 290.284 829.927 289.756 828.223 289.756C826.495 289.756 825.115 290.296 824.083 291.376C823.075 292.456 822.571 294.028 822.571 296.092V307H819.295V287.272H822.571V290.08C823.219 289.072 824.095 288.292 825.199 287.74C826.327 287.188 827.563 286.912 828.907 286.912ZM850.459 286.948C852.163 286.948 853.651 287.32 854.923 288.064C856.219 288.808 857.179 289.744 857.803 290.872V287.272H861.115V307.432C861.115 309.232 860.731 310.828 859.963 312.22C859.195 313.636 858.091 314.74 856.651 315.532C855.235 316.324 853.579 316.72 851.683 316.72C849.091 316.72 846.931 316.108 845.203 314.884C843.475 313.66 842.455 311.992 842.143 309.88H845.383C845.743 311.08 846.487 312.04 847.615 312.76C848.743 313.504 850.099 313.876 851.683 313.876C853.483 313.876 854.947 313.312 856.075 312.184C857.227 311.056 857.803 309.472 857.803 307.432V303.292C857.155 304.444 856.195 305.404 854.923 306.172C853.651 306.94 852.163 307.324 850.459 307.324C848.707 307.324 847.111 306.892 845.671 306.028C844.255 305.164 843.139 303.952 842.323 302.392C841.507 300.832 841.099 299.056 841.099 297.064C841.099 295.048 841.507 293.284 842.323 291.772C843.139 290.236 844.255 289.048 845.671 288.208C847.111 287.368 848.707 286.948 850.459 286.948ZM857.803 297.1C857.803 295.612 857.503 294.316 856.903 293.212C856.303 292.108 855.487 291.268 854.455 290.692C853.447 290.092 852.331 289.792 851.107 289.792C849.883 289.792 848.767 290.08 847.759 290.656C846.751 291.232 845.947 292.072 845.347 293.176C844.747 294.28 844.447 295.576 844.447 297.064C844.447 298.576 844.747 299.896 845.347 301.024C845.947 302.128 846.751 302.98 847.759 303.58C848.767 304.156 849.883 304.444 851.107 304.444C852.331 304.444 853.447 304.156 854.455 303.58C855.487 302.98 856.303 302.128 856.903 301.024C857.503 299.896 857.803 298.588 857.803 297.1ZM879.525 284.572V292.96H888.669V295.66H879.525V304.3H889.749V307H876.249V281.872H889.749V284.572H879.525ZM904.318 286.912C906.718 286.912 908.662 287.644 910.15 289.108C911.638 290.548 912.382 292.636 912.382 295.372V307H909.142V295.84C909.142 293.872 908.65 292.372 907.666 291.34C906.682 290.284 905.338 289.756 903.634 289.756C901.906 289.756 900.526 290.296 899.494 291.376C898.486 292.456 897.982 294.028 897.982 296.092V307H894.706V287.272H897.982V290.08C898.63 289.072 899.506 288.292 900.61 287.74C901.738 287.188 902.974 286.912 904.318 286.912ZM925.869 286.948C927.573 286.948 929.061 287.32 930.333 288.064C931.629 288.808 932.589 289.744 933.213 290.872V287.272H936.525V307.432C936.525 309.232 936.141 310.828 935.373 312.22C934.605 313.636 933.501 314.74 932.061 315.532C930.645 316.324 928.989 316.72 927.093 316.72C924.501 316.72 922.341 316.108 920.613 314.884C918.885 313.66 917.865 311.992 917.553 309.88H920.793C921.153 311.08 921.897 312.04 923.025 312.76C924.153 313.504 925.509 313.876 927.093 313.876C928.893 313.876 930.357 313.312 931.485 312.184C932.637 311.056 933.213 309.472 933.213 307.432V303.292C932.565 304.444 931.605 305.404 930.333 306.172C929.061 306.94 927.573 307.324 925.869 307.324C924.117 307.324 922.521 306.892 921.081 306.028C919.665 305.164 918.549 303.952 917.733 302.392C916.917 300.832 916.509 299.056 916.509 297.064C916.509 295.048 916.917 293.284 917.733 291.772C918.549 290.236 919.665 289.048 921.081 288.208C922.521 287.368 924.117 286.948 925.869 286.948ZM933.213 297.1C933.213 295.612 932.913 294.316 932.313 293.212C931.713 292.108 930.897 291.268 929.865 290.692C928.857 290.092 927.741 289.792 926.517 289.792C925.293 289.792 924.177 290.08 923.169 290.656C922.161 291.232 921.357 292.072 920.757 293.176C920.157 294.28 919.857 295.576 919.857 297.064C919.857 298.576 920.157 299.896 920.757 301.024C921.357 302.128 922.161 302.98 923.169 303.58C924.177 304.156 925.293 304.444 926.517 304.444C927.741 304.444 928.857 304.156 929.865 303.58C930.897 302.98 931.713 302.128 932.313 301.024C932.913 299.896 933.213 298.588 933.213 297.1ZM943.753 284.068C943.129 284.068 942.601 283.852 942.169 283.42C941.737 282.988 941.521 282.46 941.521 281.836C941.521 281.212 941.737 280.684 942.169 280.252C942.601 279.82 943.129 279.604 943.753 279.604C944.353 279.604 944.857 279.82 945.265 280.252C945.697 280.684 945.913 281.212 945.913 281.836C945.913 282.46 945.697 282.988 945.265 283.42C944.857 283.852 944.353 284.068 943.753 284.068ZM945.337 287.272V307H942.061V287.272H945.337ZM960.532 286.912C962.932 286.912 964.876 287.644 966.364 289.108C967.852 290.548 968.596 292.636 968.596 295.372V307H965.356V295.84C965.356 293.872 964.864 292.372 963.88 291.34C962.896 290.284 961.552 289.756 959.848 289.756C958.12 289.756 956.74 290.296 955.708 291.376C954.7 292.456 954.196 294.028 954.196 296.092V307H950.92V287.272H954.196V290.08C954.844 289.072 955.72 288.292 956.824 287.74C957.952 287.188 959.188 286.912 960.532 286.912ZM991.948 296.38C991.948 297.004 991.912 297.664 991.84 298.36H976.072C976.192 300.304 976.852 301.828 978.052 302.932C979.276 304.012 980.752 304.552 982.48 304.552C983.896 304.552 985.072 304.228 986.008 303.58C986.968 302.908 987.64 302.02 988.024 300.916H991.552C991.024 302.812 989.968 304.36 988.384 305.56C986.8 306.736 984.832 307.324 982.48 307.324C980.608 307.324 978.928 306.904 977.44 306.064C975.976 305.224 974.824 304.036 973.984 302.5C973.144 300.94 972.724 299.14 972.724 297.1C972.724 295.06 973.132 293.272 973.948 291.736C974.764 290.2 975.904 289.024 977.368 288.208C978.856 287.368 980.56 286.948 982.48 286.948C984.352 286.948 986.008 287.356 987.448 288.172C988.888 288.988 989.992 290.116 990.76 291.556C991.552 292.972 991.948 294.58 991.948 296.38ZM988.564 295.696C988.564 294.448 988.288 293.38 987.736 292.492C987.184 291.58 986.428 290.896 985.468 290.44C984.532 289.96 983.488 289.72 982.336 289.72C980.68 289.72 979.264 290.248 978.088 291.304C976.936 292.36 976.276 293.824 976.108 295.696H988.564ZM997.316 307.216C996.692 307.216 996.164 307 995.732 306.568C995.3 306.136 995.084 305.608 995.084 304.984C995.084 304.36 995.3 303.832 995.732 303.4C996.164 302.968 996.692 302.752 997.316 302.752C997.916 302.752 998.42 302.968 998.828 303.4C999.26 303.832 999.476 304.36 999.476 304.984C999.476 305.608 999.26 306.136 998.828 306.568C998.42 307 997.916 307.216 997.316 307.216ZM997.316 291.808C996.692 291.808 996.164 291.592 995.732 291.16C995.3 290.728 995.084 290.2 995.084 289.576C995.084 288.952 995.3 288.424 995.732 287.992C996.164 287.56 996.692 287.344 997.316 287.344C997.916 287.344 998.42 287.56 998.828 287.992C999.26 288.424 999.476 288.952 999.476 289.576C999.476 290.2 999.26 290.728 998.828 291.16C998.42 291.592 997.916 291.808 997.316 291.808ZM1028.98 281.908V284.572H1022.14V307H1018.86V284.572H1011.99V281.908H1028.98ZM1042.8 286.912C1044.29 286.912 1045.63 287.236 1046.83 287.884C1048.03 288.508 1048.97 289.456 1049.64 290.728C1050.34 292 1050.69 293.548 1050.69 295.372V307H1047.45V295.84C1047.45 293.872 1046.95 292.372 1045.97 291.34C1044.99 290.284 1043.64 289.756 1041.94 289.756C1040.21 289.756 1038.83 290.296 1037.8 291.376C1036.79 292.456 1036.29 294.028 1036.29 296.092V307H1033.01V280.36H1036.29V290.08C1036.93 289.072 1037.82 288.292 1038.95 287.74C1040.1 287.188 1041.39 286.912 1042.8 286.912ZM1074.04 296.38C1074.04 297.004 1074 297.664 1073.93 298.36H1058.16C1058.28 300.304 1058.94 301.828 1060.14 302.932C1061.37 304.012 1062.84 304.552 1064.57 304.552C1065.99 304.552 1067.16 304.228 1068.1 303.58C1069.06 302.908 1069.73 302.02 1070.11 300.916H1073.64C1073.11 302.812 1072.06 304.36 1070.47 305.56C1068.89 306.736 1066.92 307.324 1064.57 307.324C1062.7 307.324 1061.02 306.904 1059.53 306.064C1058.07 305.224 1056.91 304.036 1056.07 302.5C1055.23 300.94 1054.81 299.14 1054.81 297.1C1054.81 295.06 1055.22 293.272 1056.04 291.736C1056.85 290.2 1057.99 289.024 1059.46 288.208C1060.95 287.368 1062.65 286.948 1064.57 286.948C1066.44 286.948 1068.1 287.356 1069.54 288.172C1070.98 288.988 1072.08 290.116 1072.85 291.556C1073.64 292.972 1074.04 294.58 1074.04 296.38ZM1070.65 295.696C1070.65 294.448 1070.38 293.38 1069.83 292.492C1069.27 291.58 1068.52 290.896 1067.56 290.44C1066.62 289.96 1065.58 289.72 1064.43 289.72C1062.77 289.72 1061.35 290.248 1060.18 291.304C1059.03 292.36 1058.37 293.824 1058.2 295.696H1070.65ZM1095.92 307.252C1094.26 307.252 1092.77 306.964 1091.45 306.388C1090.16 305.788 1089.14 304.972 1088.39 303.94C1087.65 302.884 1087.26 301.672 1087.24 300.304H1090.73C1090.85 301.48 1091.33 302.476 1092.17 303.292C1093.04 304.084 1094.28 304.48 1095.92 304.48C1097.48 304.48 1098.7 304.096 1099.59 303.328C1100.5 302.536 1100.96 301.528 1100.96 300.304C1100.96 299.344 1100.69 298.564 1100.16 297.964C1099.64 297.364 1098.98 296.908 1098.18 296.596C1097.39 296.284 1096.32 295.948 1094.98 295.588C1093.32 295.156 1091.99 294.724 1090.98 294.292C1090 293.86 1089.15 293.188 1088.43 292.276C1087.73 291.34 1087.38 290.092 1087.38 288.532C1087.38 287.164 1087.73 285.952 1088.43 284.896C1089.12 283.84 1090.1 283.024 1091.34 282.448C1092.62 281.872 1094.07 281.584 1095.7 281.584C1098.05 281.584 1099.97 282.172 1101.46 283.348C1102.97 284.524 1103.82 286.084 1104.02 288.028H1100.42C1100.3 287.068 1099.79 286.228 1098.9 285.508C1098.02 284.764 1096.84 284.392 1095.38 284.392C1094.01 284.392 1092.89 284.752 1092.03 285.472C1091.16 286.168 1090.73 287.152 1090.73 288.424C1090.73 289.336 1090.98 290.08 1091.49 290.656C1092.02 291.232 1092.65 291.676 1093.4 291.988C1094.16 292.276 1095.23 292.612 1096.6 292.996C1098.26 293.452 1099.59 293.908 1100.6 294.364C1101.6 294.796 1102.47 295.48 1103.19 296.416C1103.91 297.328 1104.27 298.576 1104.27 300.16C1104.27 301.384 1103.94 302.536 1103.3 303.616C1102.65 304.696 1101.69 305.572 1100.42 306.244C1099.14 306.916 1097.64 307.252 1095.92 307.252ZM1110.78 284.068C1110.16 284.068 1109.63 283.852 1109.2 283.42C1108.76 282.988 1108.55 282.46 1108.55 281.836C1108.55 281.212 1108.76 280.684 1109.2 280.252C1109.63 279.82 1110.16 279.604 1110.78 279.604C1111.38 279.604 1111.88 279.82 1112.29 280.252C1112.72 280.684 1112.94 281.212 1112.94 281.836C1112.94 282.46 1112.72 282.988 1112.29 283.42C1111.88 283.852 1111.38 284.068 1110.78 284.068ZM1112.36 287.272V307H1109.09V287.272H1112.36ZM1141.67 286.912C1143.21 286.912 1144.58 287.236 1145.78 287.884C1146.98 288.508 1147.92 289.456 1148.62 290.728C1149.32 292 1149.66 293.548 1149.66 295.372V307H1146.42V295.84C1146.42 293.872 1145.93 292.372 1144.95 291.34C1143.99 290.284 1142.68 289.756 1141.02 289.756C1139.32 289.756 1137.96 290.308 1136.96 291.412C1135.95 292.492 1135.44 294.064 1135.44 296.128V307H1132.2V295.84C1132.2 293.872 1131.71 292.372 1130.73 291.34C1129.77 290.284 1128.46 289.756 1126.8 289.756C1125.1 289.756 1123.74 290.308 1122.74 291.412C1121.73 292.492 1121.22 294.064 1121.22 296.128V307H1117.95V287.272H1121.22V290.116C1121.87 289.084 1122.74 288.292 1123.82 287.74C1124.92 287.188 1126.13 286.912 1127.45 286.912C1129.11 286.912 1130.57 287.284 1131.84 288.028C1133.12 288.772 1134.06 289.864 1134.69 291.304C1135.24 289.912 1136.15 288.832 1137.42 288.064C1138.7 287.296 1140.11 286.912 1141.67 286.912ZM1158.31 290.908C1158.96 289.78 1159.92 288.844 1161.19 288.1C1162.49 287.332 1163.99 286.948 1165.69 286.948C1167.45 286.948 1169.03 287.368 1170.45 288.208C1171.89 289.048 1173.01 290.236 1173.83 291.772C1174.65 293.284 1175.05 295.048 1175.05 297.064C1175.05 299.056 1174.65 300.832 1173.83 302.392C1173.01 303.952 1171.89 305.164 1170.45 306.028C1169.03 306.892 1167.45 307.324 1165.69 307.324C1164.01 307.324 1162.53 306.952 1161.23 306.208C1159.96 305.44 1158.99 304.492 1158.31 303.364V316.36H1155.04V287.272H1158.31V290.908ZM1171.71 297.064C1171.71 295.576 1171.41 294.28 1170.81 293.176C1170.21 292.072 1169.39 291.232 1168.36 290.656C1167.35 290.08 1166.23 289.792 1165.01 289.792C1163.81 289.792 1162.69 290.092 1161.66 290.692C1160.65 291.268 1159.84 292.12 1159.21 293.248C1158.61 294.352 1158.31 295.636 1158.31 297.1C1158.31 298.588 1158.61 299.896 1159.21 301.024C1159.84 302.128 1160.65 302.98 1161.66 303.58C1162.69 304.156 1163.81 304.444 1165.01 304.444C1166.23 304.444 1167.35 304.156 1168.36 303.58C1169.39 302.98 1170.21 302.128 1170.81 301.024C1171.41 299.896 1171.71 298.576 1171.71 297.064ZM1182.64 280.36V307H1179.37V280.36H1182.64ZM1206.23 296.38C1206.23 297.004 1206.19 297.664 1206.12 298.36H1190.35C1190.47 300.304 1191.13 301.828 1192.33 302.932C1193.55 304.012 1195.03 304.552 1196.76 304.552C1198.17 304.552 1199.35 304.228 1200.29 303.58C1201.25 302.908 1201.92 302.02 1202.3 300.916H1205.83C1205.3 302.812 1204.25 304.36 1202.66 305.56C1201.08 306.736 1199.11 307.324 1196.76 307.324C1194.89 307.324 1193.21 306.904 1191.72 306.064C1190.25 305.224 1189.1 304.036 1188.26 302.5C1187.42 300.94 1187 299.14 1187 297.1C1187 295.06 1187.41 293.272 1188.23 291.736C1189.04 290.2 1190.18 289.024 1191.65 288.208C1193.13 287.368 1194.84 286.948 1196.76 286.948C1198.63 286.948 1200.29 287.356 1201.73 288.172C1203.17 288.988 1204.27 290.116 1205.04 291.556C1205.83 292.972 1206.23 294.58 1206.23 296.38ZM1202.84 295.696C1202.84 294.448 1202.57 293.38 1202.01 292.492C1201.46 291.58 1200.71 290.896 1199.75 290.44C1198.81 289.96 1197.77 289.72 1196.61 289.72C1194.96 289.72 1193.54 290.248 1192.37 291.304C1191.21 292.36 1190.55 293.824 1190.39 295.696H1202.84ZM510.308 335.908L503.036 361H499.364L493.532 340.804L487.484 361L483.848 361.036L476.828 335.908H480.32L485.792 357.184L491.84 335.908H495.512L501.272 357.112L506.78 335.908H510.308ZM512.669 351.064C512.669 349.048 513.077 347.284 513.893 345.772C514.709 344.236 515.825 343.048 517.241 342.208C518.681 341.368 520.277 340.948 522.029 340.948C523.757 340.948 525.257 341.32 526.529 342.064C527.801 342.808 528.749 343.744 529.373 344.872V341.272H532.685V361H529.373V357.328C528.725 358.48 527.753 359.44 526.457 360.208C525.185 360.952 523.697 361.324 521.993 361.324C520.241 361.324 518.657 360.892 517.241 360.028C515.825 359.164 514.709 357.952 513.893 356.392C513.077 354.832 512.669 353.056 512.669 351.064ZM529.373 351.1C529.373 349.612 529.073 348.316 528.473 347.212C527.873 346.108 527.057 345.268 526.025 344.692C525.017 344.092 523.901 343.792 522.677 343.792C521.453 343.792 520.337 344.08 519.329 344.656C518.321 345.232 517.517 346.072 516.917 347.176C516.317 348.28 516.017 349.576 516.017 351.064C516.017 352.576 516.317 353.896 516.917 355.024C517.517 356.128 518.321 356.98 519.329 357.58C520.337 358.156 521.453 358.444 522.677 358.444C523.901 358.444 525.017 358.156 526.025 357.58C527.057 356.98 527.873 356.128 528.473 355.024C529.073 353.896 529.373 352.588 529.373 351.1ZM555.213 341.272L543.333 370.288H539.949L543.837 360.784L535.881 341.272H539.517L545.709 357.256L551.829 341.272H555.213ZM572.1 343.972V355.6C572.1 356.56 572.304 357.244 572.712 357.652C573.12 358.036 573.828 358.228 574.836 358.228H577.248V361H574.296C572.472 361 571.104 360.58 570.192 359.74C569.28 358.9 568.824 357.52 568.824 355.6V343.972H566.268V341.272H568.824V336.304H572.1V341.272H577.248V343.972H572.1ZM589.821 361.324C587.973 361.324 586.293 360.904 584.781 360.064C583.293 359.224 582.117 358.036 581.253 356.5C580.413 354.94 579.993 353.14 579.993 351.1C579.993 349.084 580.425 347.308 581.289 345.772C582.177 344.212 583.377 343.024 584.889 342.208C586.401 341.368 588.093 340.948 589.965 340.948C591.837 340.948 593.529 341.368 595.041 342.208C596.553 343.024 597.741 344.2 598.605 345.736C599.493 347.272 599.937 349.06 599.937 351.1C599.937 353.14 599.481 354.94 598.569 356.5C597.681 358.036 596.469 359.224 594.933 360.064C593.397 360.904 591.693 361.324 589.821 361.324ZM589.821 358.444C590.997 358.444 592.101 358.168 593.133 357.616C594.165 357.064 594.993 356.236 595.617 355.132C596.265 354.028 596.589 352.684 596.589 351.1C596.589 349.516 596.277 348.172 595.653 347.068C595.029 345.964 594.213 345.148 593.205 344.62C592.197 344.068 591.105 343.792 589.929 343.792C588.729 343.792 587.625 344.068 586.617 344.62C585.633 345.148 584.841 345.964 584.241 347.068C583.641 348.172 583.341 349.516 583.341 351.1C583.341 352.708 583.629 354.064 584.205 355.168C584.805 356.272 585.597 357.1 586.581 357.652C587.565 358.18 588.645 358.444 589.821 358.444ZM627.054 361L621.078 350.74H617.118V361H613.842V335.908H621.942C623.838 335.908 625.434 336.232 626.73 336.88C628.05 337.528 629.034 338.404 629.682 339.508C630.33 340.612 630.654 341.872 630.654 343.288C630.654 345.016 630.15 346.54 629.142 347.86C628.158 349.18 626.67 350.056 624.678 350.488L630.978 361H627.054ZM617.118 348.112H621.942C623.718 348.112 625.05 347.68 625.938 346.816C626.826 345.928 627.27 344.752 627.27 343.288C627.27 341.8 626.826 340.648 625.938 339.832C625.074 339.016 623.742 338.608 621.942 338.608H617.118V348.112ZM653.241 341.272V361H649.965V358.084C649.341 359.092 648.465 359.884 647.337 360.46C646.233 361.012 645.009 361.288 643.665 361.288C642.129 361.288 640.749 360.976 639.525 360.352C638.301 359.704 637.329 358.744 636.609 357.472C635.913 356.2 635.565 354.652 635.565 352.828V341.272H638.805V352.396C638.805 354.34 639.297 355.84 640.281 356.896C641.265 357.928 642.609 358.444 644.313 358.444C646.065 358.444 647.445 357.904 648.453 356.824C649.461 355.744 649.965 354.172 649.965 352.108V341.272H653.241ZM668.384 340.912C670.784 340.912 672.728 341.644 674.216 343.108C675.704 344.548 676.448 346.636 676.448 349.372V361H673.208V349.84C673.208 347.872 672.716 346.372 671.732 345.34C670.748 344.284 669.404 343.756 667.7 343.756C665.972 343.756 664.592 344.296 663.56 345.376C662.552 346.456 662.048 348.028 662.048 350.092V361H658.772V341.272H662.048V344.08C662.696 343.072 663.572 342.292 664.676 341.74C665.804 341.188 667.04 340.912 668.384 340.912ZM690.173 348.436C690.173 345.988 690.725 343.792 691.829 341.848C692.933 339.88 694.433 338.344 696.329 337.24C698.249 336.136 700.373 335.584 702.701 335.584C705.437 335.584 707.825 336.244 709.865 337.564C711.905 338.884 713.393 340.756 714.329 343.18H710.405C709.709 341.668 708.701 340.504 707.381 339.688C706.085 338.872 704.525 338.464 702.701 338.464C700.949 338.464 699.377 338.872 697.985 339.688C696.593 340.504 695.501 341.668 694.709 343.18C693.917 344.668 693.521 346.42 693.521 348.436C693.521 350.428 693.917 352.18 694.709 353.692C695.501 355.18 696.593 356.332 697.985 357.148C699.377 357.964 700.949 358.372 702.701 358.372C704.525 358.372 706.085 357.976 707.381 357.184C708.701 356.368 709.709 355.204 710.405 353.692H714.329C713.393 356.092 711.905 357.952 709.865 359.272C707.825 360.568 705.437 361.216 702.701 361.216C700.373 361.216 698.249 360.676 696.329 359.596C694.433 358.492 692.933 356.968 691.829 355.024C690.725 353.08 690.173 350.884 690.173 348.436ZM736.198 341.272L724.318 370.288H720.934L724.822 360.784L716.866 341.272H720.502L726.694 357.256L732.814 341.272H736.198ZM742.767 344.944C743.439 343.768 744.423 342.808 745.719 342.064C747.015 341.32 748.491 340.948 750.147 340.948C751.923 340.948 753.519 341.368 754.935 342.208C756.351 343.048 757.467 344.236 758.283 345.772C759.099 347.284 759.507 349.048 759.507 351.064C759.507 353.056 759.099 354.832 758.283 356.392C757.467 357.952 756.339 359.164 754.899 360.028C753.483 360.892 751.899 361.324 750.147 361.324C748.443 361.324 746.943 360.952 745.647 360.208C744.375 359.464 743.415 358.516 742.767 357.364V361H739.491V334.36H742.767V344.944ZM756.159 351.064C756.159 349.576 755.859 348.28 755.259 347.176C754.659 346.072 753.843 345.232 752.811 344.656C751.803 344.08 750.687 343.792 749.463 343.792C748.263 343.792 747.147 344.092 746.115 344.692C745.107 345.268 744.291 346.12 743.667 347.248C743.067 348.352 742.767 349.636 742.767 351.1C742.767 352.588 743.067 353.896 743.667 355.024C744.291 356.128 745.107 356.98 746.115 357.58C747.147 358.156 748.263 358.444 749.463 358.444C750.687 358.444 751.803 358.156 752.811 357.58C753.843 356.98 754.659 356.128 755.259 355.024C755.859 353.896 756.159 352.576 756.159 351.064ZM781.819 350.38C781.819 351.004 781.783 351.664 781.711 352.36H765.943C766.063 354.304 766.723 355.828 767.923 356.932C769.147 358.012 770.623 358.552 772.351 358.552C773.767 358.552 774.943 358.228 775.879 357.58C776.839 356.908 777.511 356.02 777.895 354.916H781.423C780.895 356.812 779.839 358.36 778.255 359.56C776.671 360.736 774.703 361.324 772.351 361.324C770.479 361.324 768.799 360.904 767.311 360.064C765.847 359.224 764.695 358.036 763.855 356.5C763.015 354.94 762.595 353.14 762.595 351.1C762.595 349.06 763.003 347.272 763.819 345.736C764.635 344.2 765.775 343.024 767.239 342.208C768.727 341.368 770.431 340.948 772.351 340.948C774.223 340.948 775.879 341.356 777.319 342.172C778.759 342.988 779.863 344.116 780.631 345.556C781.423 346.972 781.819 348.58 781.819 350.38ZM778.435 349.696C778.435 348.448 778.159 347.38 777.607 346.492C777.055 345.58 776.299 344.896 775.339 344.44C774.403 343.96 773.359 343.72 772.207 343.72C770.551 343.72 769.135 344.248 767.959 345.304C766.807 346.36 766.147 347.824 765.979 349.696H778.435ZM789.419 344.476C789.995 343.348 790.811 342.472 791.867 341.848C792.947 341.224 794.255 340.912 795.791 340.912V344.296H794.927C791.255 344.296 789.419 346.288 789.419 350.272V361H786.143V341.272H789.419V344.476ZM802.849 344.908C803.497 343.78 804.457 342.844 805.729 342.1C807.025 341.332 808.525 340.948 810.229 340.948C811.981 340.948 813.565 341.368 814.981 342.208C816.421 343.048 817.549 344.236 818.365 345.772C819.181 347.284 819.589 349.048 819.589 351.064C819.589 353.056 819.181 354.832 818.365 356.392C817.549 357.952 816.421 359.164 814.981 360.028C813.565 360.892 811.981 361.324 810.229 361.324C808.549 361.324 807.061 360.952 805.765 360.208C804.493 359.44 803.521 358.492 802.849 357.364V370.36H799.573V341.272H802.849V344.908ZM816.241 351.064C816.241 349.576 815.941 348.28 815.341 347.176C814.741 346.072 813.925 345.232 812.893 344.656C811.885 344.08 810.769 343.792 809.545 343.792C808.345 343.792 807.229 344.092 806.197 344.692C805.189 345.268 804.373 346.12 803.749 347.248C803.149 348.352 802.849 349.636 802.849 351.1C802.849 352.588 803.149 353.896 803.749 355.024C804.373 356.128 805.189 356.98 806.197 357.58C807.229 358.156 808.345 358.444 809.545 358.444C810.769 358.444 811.885 358.156 812.893 357.58C813.925 356.98 814.741 356.128 815.341 355.024C815.941 353.896 816.241 352.576 816.241 351.064ZM822.677 351.064C822.677 349.048 823.085 347.284 823.901 345.772C824.717 344.236 825.833 343.048 827.249 342.208C828.689 341.368 830.285 340.948 832.037 340.948C833.765 340.948 835.265 341.32 836.537 342.064C837.809 342.808 838.757 343.744 839.381 344.872V341.272H842.693V361H839.381V357.328C838.733 358.48 837.761 359.44 836.465 360.208C835.193 360.952 833.705 361.324 832.001 361.324C830.249 361.324 828.665 360.892 827.249 360.028C825.833 359.164 824.717 357.952 823.901 356.392C823.085 354.832 822.677 353.056 822.677 351.064ZM839.381 351.1C839.381 349.612 839.081 348.316 838.481 347.212C837.881 346.108 837.065 345.268 836.033 344.692C835.025 344.092 833.909 343.792 832.685 343.792C831.461 343.792 830.345 344.08 829.337 344.656C828.329 345.232 827.525 346.072 826.925 347.176C826.325 348.28 826.025 349.576 826.025 351.064C826.025 352.576 826.325 353.896 826.925 355.024C827.525 356.128 828.329 356.98 829.337 357.58C830.345 358.156 831.461 358.444 832.685 358.444C833.909 358.444 835.025 358.156 836.033 357.58C837.065 356.98 837.881 356.128 838.481 355.024C839.081 353.896 839.381 352.588 839.381 351.1ZM852.225 343.972V355.6C852.225 356.56 852.429 357.244 852.837 357.652C853.245 358.036 853.953 358.228 854.961 358.228H857.373V361H854.421C852.597 361 851.229 360.58 850.317 359.74C849.405 358.9 848.949 357.52 848.949 355.6V343.972H846.393V341.272H848.949V336.304H852.225V341.272H857.373V343.972H852.225ZM864.618 344.476C865.194 343.348 866.01 342.472 867.066 341.848C868.146 341.224 869.454 340.912 870.99 340.912V344.296H870.126C866.454 344.296 864.618 346.288 864.618 350.272V361H861.342V341.272H864.618V344.476ZM876.464 338.068C875.84 338.068 875.312 337.852 874.88 337.42C874.448 336.988 874.232 336.46 874.232 335.836C874.232 335.212 874.448 334.684 874.88 334.252C875.312 333.82 875.84 333.604 876.464 333.604C877.064 333.604 877.568 333.82 877.976 334.252C878.408 334.684 878.624 335.212 878.624 335.836C878.624 336.46 878.408 336.988 877.976 337.42C877.568 337.852 877.064 338.068 876.464 338.068ZM878.048 341.272V361H874.772V341.272H878.048ZM892.235 361.324C890.387 361.324 888.707 360.904 887.195 360.064C885.707 359.224 884.531 358.036 883.667 356.5C882.827 354.94 882.407 353.14 882.407 351.1C882.407 349.084 882.839 347.308 883.703 345.772C884.591 344.212 885.791 343.024 887.303 342.208C888.815 341.368 890.507 340.948 892.379 340.948C894.251 340.948 895.943 341.368 897.455 342.208C898.967 343.024 900.155 344.2 901.019 345.736C901.907 347.272 902.351 349.06 902.351 351.1C902.351 353.14 901.895 354.94 900.983 356.5C900.095 358.036 898.883 359.224 897.347 360.064C895.811 360.904 894.107 361.324 892.235 361.324ZM892.235 358.444C893.411 358.444 894.515 358.168 895.547 357.616C896.579 357.064 897.407 356.236 898.031 355.132C898.679 354.028 899.003 352.684 899.003 351.1C899.003 349.516 898.691 348.172 898.067 347.068C897.443 345.964 896.627 345.148 895.619 344.62C894.611 344.068 893.519 343.792 892.343 343.792C891.143 343.792 890.039 344.068 889.031 344.62C888.047 345.148 887.255 345.964 886.655 347.068C886.055 348.172 885.755 349.516 885.755 351.1C885.755 352.708 886.043 354.064 886.619 355.168C887.219 356.272 888.011 357.1 888.995 357.652C889.979 358.18 891.059 358.444 892.235 358.444ZM910.655 343.972V355.6C910.655 356.56 910.859 357.244 911.267 357.652C911.675 358.036 912.383 358.228 913.391 358.228H915.803V361H912.851C911.027 361 909.659 360.58 908.747 359.74C907.835 358.9 907.379 357.52 907.379 355.6V343.972H904.823V341.272H907.379V336.304H910.655V341.272H915.803V343.972H910.655ZM933.452 346.42V349.192H919.088V346.42H933.452ZM942.876 334.36V361H939.6V334.36H942.876ZM950.152 338.068C949.528 338.068 949 337.852 948.568 337.42C948.136 336.988 947.92 336.46 947.92 335.836C947.92 335.212 948.136 334.684 948.568 334.252C949 333.82 949.528 333.604 950.152 333.604C950.752 333.604 951.256 333.82 951.664 334.252C952.096 334.684 952.312 335.212 952.312 335.836C952.312 336.46 952.096 336.988 951.664 337.42C951.256 337.852 950.752 338.068 950.152 338.068ZM951.736 341.272V361H948.46V341.272H951.736ZM968.335 361L960.595 352.288V361H957.319V334.36H960.595V350.02L968.191 341.272H972.763L963.475 351.1L972.799 361H968.335ZM993.846 350.38C993.846 351.004 993.81 351.664 993.738 352.36H977.97C978.09 354.304 978.75 355.828 979.95 356.932C981.174 358.012 982.65 358.552 984.378 358.552C985.794 358.552 986.97 358.228 987.906 357.58C988.866 356.908 989.538 356.02 989.922 354.916H993.45C992.922 356.812 991.866 358.36 990.282 359.56C988.698 360.736 986.73 361.324 984.378 361.324C982.506 361.324 980.826 360.904 979.338 360.064C977.874 359.224 976.722 358.036 975.882 356.5C975.042 354.94 974.622 353.14 974.622 351.1C974.622 349.06 975.03 347.272 975.846 345.736C976.662 344.2 977.802 343.024 979.266 342.208C980.754 341.368 982.458 340.948 984.378 340.948C986.25 340.948 987.906 341.356 989.346 342.172C990.786 342.988 991.89 344.116 992.658 345.556C993.45 346.972 993.846 348.58 993.846 350.38ZM990.462 349.696C990.462 348.448 990.186 347.38 989.634 346.492C989.082 345.58 988.326 344.896 987.366 344.44C986.43 343.96 985.386 343.72 984.234 343.72C982.578 343.72 981.162 344.248 979.986 345.304C978.834 346.36 978.174 347.824 978.006 349.696H990.462ZM477.548 402.436C477.548 399.988 478.1 397.792 479.204 395.848C480.308 393.88 481.808 392.344 483.704 391.24C485.624 390.136 487.748 389.584 490.076 389.584C492.812 389.584 495.2 390.244 497.24 391.564C499.28 392.884 500.768 394.756 501.704 397.18H497.78C497.084 395.668 496.076 394.504 494.756 393.688C493.46 392.872 491.9 392.464 490.076 392.464C488.324 392.464 486.752 392.872 485.36 393.688C483.968 394.504 482.876 395.668 482.084 397.18C481.292 398.668 480.896 400.42 480.896 402.436C480.896 404.428 481.292 406.18 482.084 407.692C482.876 409.18 483.968 410.332 485.36 411.148C486.752 411.964 488.324 412.372 490.076 412.372C491.9 412.372 493.46 411.976 494.756 411.184C496.076 410.368 497.084 409.204 497.78 407.692H501.704C500.768 410.092 499.28 411.952 497.24 413.272C495.2 414.568 492.812 415.216 490.076 415.216C487.748 415.216 485.624 414.676 483.704 413.596C481.808 412.492 480.308 410.968 479.204 409.024C478.1 407.08 477.548 404.884 477.548 402.436ZM515.185 415.324C513.337 415.324 511.657 414.904 510.145 414.064C508.657 413.224 507.481 412.036 506.617 410.5C505.777 408.94 505.357 407.14 505.357 405.1C505.357 403.084 505.789 401.308 506.653 399.772C507.541 398.212 508.741 397.024 510.253 396.208C511.765 395.368 513.457 394.948 515.329 394.948C517.201 394.948 518.893 395.368 520.405 396.208C521.917 397.024 523.105 398.2 523.969 399.736C524.857 401.272 525.301 403.06 525.301 405.1C525.301 407.14 524.845 408.94 523.933 410.5C523.045 412.036 521.833 413.224 520.297 414.064C518.761 414.904 517.057 415.324 515.185 415.324ZM515.185 412.444C516.361 412.444 517.465 412.168 518.497 411.616C519.529 411.064 520.357 410.236 520.981 409.132C521.629 408.028 521.953 406.684 521.953 405.1C521.953 403.516 521.641 402.172 521.017 401.068C520.393 399.964 519.577 399.148 518.569 398.62C517.561 398.068 516.469 397.792 515.293 397.792C514.093 397.792 512.989 398.068 511.981 398.62C510.997 399.148 510.205 399.964 509.605 401.068C509.005 402.172 508.705 403.516 508.705 405.1C508.705 406.708 508.993 408.064 509.569 409.168C510.169 410.272 510.961 411.1 511.945 411.652C512.929 412.18 514.009 412.444 515.185 412.444ZM553.332 394.912C554.868 394.912 556.236 395.236 557.436 395.884C558.636 396.508 559.584 397.456 560.28 398.728C560.976 400 561.324 401.548 561.324 403.372V415H558.084V403.84C558.084 401.872 557.592 400.372 556.608 399.34C555.648 398.284 554.34 397.756 552.684 397.756C550.98 397.756 549.624 398.308 548.616 399.412C547.608 400.492 547.104 402.064 547.104 404.128V415H543.864V403.84C543.864 401.872 543.372 400.372 542.388 399.34C541.428 398.284 540.12 397.756 538.464 397.756C536.76 397.756 535.404 398.308 534.396 399.412C533.388 400.492 532.884 402.064 532.884 404.128V415H529.608V395.272H532.884V398.116C533.532 397.084 534.396 396.292 535.476 395.74C536.58 395.188 537.792 394.912 539.112 394.912C540.768 394.912 542.232 395.284 543.504 396.028C544.776 396.772 545.724 397.864 546.348 399.304C546.9 397.912 547.812 396.832 549.084 396.064C550.356 395.296 551.772 394.912 553.332 394.912ZM569.974 398.908C570.622 397.78 571.582 396.844 572.854 396.1C574.15 395.332 575.65 394.948 577.354 394.948C579.106 394.948 580.69 395.368 582.106 396.208C583.546 397.048 584.674 398.236 585.49 399.772C586.306 401.284 586.714 403.048 586.714 405.064C586.714 407.056 586.306 408.832 585.49 410.392C584.674 411.952 583.546 413.164 582.106 414.028C580.69 414.892 579.106 415.324 577.354 415.324C575.674 415.324 574.186 414.952 572.89 414.208C571.618 413.44 570.646 412.492 569.974 411.364V424.36H566.698V395.272H569.974V398.908ZM583.366 405.064C583.366 403.576 583.066 402.28 582.466 401.176C581.866 400.072 581.05 399.232 580.018 398.656C579.01 398.08 577.894 397.792 576.67 397.792C575.47 397.792 574.354 398.092 573.322 398.692C572.314 399.268 571.498 400.12 570.874 401.248C570.274 402.352 569.974 403.636 569.974 405.1C569.974 406.588 570.274 407.896 570.874 409.024C571.498 410.128 572.314 410.98 573.322 411.58C574.354 412.156 575.47 412.444 576.67 412.444C577.894 412.444 579.01 412.156 580.018 411.58C581.05 410.98 581.866 410.128 582.466 409.024C583.066 407.896 583.366 406.576 583.366 405.064ZM609.026 404.38C609.026 405.004 608.99 405.664 608.918 406.36H593.15C593.27 408.304 593.93 409.828 595.13 410.932C596.354 412.012 597.83 412.552 599.558 412.552C600.974 412.552 602.15 412.228 603.086 411.58C604.046 410.908 604.718 410.02 605.102 408.916H608.63C608.102 410.812 607.046 412.36 605.462 413.56C603.878 414.736 601.91 415.324 599.558 415.324C597.686 415.324 596.006 414.904 594.518 414.064C593.054 413.224 591.902 412.036 591.062 410.5C590.222 408.94 589.802 407.14 589.802 405.1C589.802 403.06 590.21 401.272 591.026 399.736C591.842 398.2 592.982 397.024 594.446 396.208C595.934 395.368 597.638 394.948 599.558 394.948C601.43 394.948 603.086 395.356 604.526 396.172C605.966 396.988 607.07 398.116 607.838 399.556C608.63 400.972 609.026 402.58 609.026 404.38ZM605.642 403.696C605.642 402.448 605.366 401.38 604.814 400.492C604.262 399.58 603.506 398.896 602.546 398.44C601.61 397.96 600.566 397.72 599.414 397.72C597.758 397.72 596.342 398.248 595.166 399.304C594.014 400.36 593.354 401.824 593.186 403.696H605.642ZM617.346 397.972V409.6C617.346 410.56 617.55 411.244 617.958 411.652C618.366 412.036 619.074 412.228 620.082 412.228H622.494V415H619.542C617.718 415 616.35 414.58 615.438 413.74C614.526 412.9 614.07 411.52 614.07 409.6V397.972H611.514V395.272H614.07V390.304H617.346V395.272H622.494V397.972H617.346ZM628.155 392.068C627.531 392.068 627.003 391.852 626.571 391.42C626.139 390.988 625.923 390.46 625.923 389.836C625.923 389.212 626.139 388.684 626.571 388.252C627.003 387.82 627.531 387.604 628.155 387.604C628.755 387.604 629.259 387.82 629.667 388.252C630.099 388.684 630.315 389.212 630.315 389.836C630.315 390.46 630.099 390.988 629.667 391.42C629.259 391.852 628.755 392.068 628.155 392.068ZM629.739 395.272V415H626.463V395.272H629.739ZM639.319 397.972V409.6C639.319 410.56 639.523 411.244 639.931 411.652C640.339 412.036 641.047 412.228 642.055 412.228H644.467V415H641.515C639.691 415 638.323 414.58 637.411 413.74C636.499 412.9 636.043 411.52 636.043 409.6V397.972H633.487V395.272H636.043V390.304H639.319V395.272H644.467V397.972H639.319ZM650.128 392.068C649.504 392.068 648.976 391.852 648.544 391.42C648.112 390.988 647.896 390.46 647.896 389.836C647.896 389.212 648.112 388.684 648.544 388.252C648.976 387.82 649.504 387.604 650.128 387.604C650.728 387.604 651.232 387.82 651.64 388.252C652.072 388.684 652.288 389.212 652.288 389.836C652.288 390.46 652.072 390.988 651.64 391.42C651.232 391.852 650.728 392.068 650.128 392.068ZM651.712 395.272V415H648.436V395.272H651.712ZM665.899 415.324C664.051 415.324 662.371 414.904 660.859 414.064C659.371 413.224 658.195 412.036 657.331 410.5C656.491 408.94 656.071 407.14 656.071 405.1C656.071 403.084 656.503 401.308 657.367 399.772C658.255 398.212 659.455 397.024 660.967 396.208C662.479 395.368 664.171 394.948 666.043 394.948C667.915 394.948 669.607 395.368 671.119 396.208C672.631 397.024 673.819 398.2 674.683 399.736C675.571 401.272 676.015 403.06 676.015 405.1C676.015 407.14 675.559 408.94 674.647 410.5C673.759 412.036 672.547 413.224 671.011 414.064C669.475 414.904 667.771 415.324 665.899 415.324ZM665.899 412.444C667.075 412.444 668.179 412.168 669.211 411.616C670.243 411.064 671.071 410.236 671.695 409.132C672.343 408.028 672.667 406.684 672.667 405.1C672.667 403.516 672.355 402.172 671.731 401.068C671.107 399.964 670.291 399.148 669.283 398.62C668.275 398.068 667.183 397.792 666.007 397.792C664.807 397.792 663.703 398.068 662.695 398.62C661.711 399.148 660.919 399.964 660.319 401.068C659.719 402.172 659.419 403.516 659.419 405.1C659.419 406.708 659.707 408.064 660.283 409.168C660.883 410.272 661.675 411.1 662.659 411.652C663.643 412.18 664.723 412.444 665.899 412.444ZM689.935 394.912C692.335 394.912 694.279 395.644 695.767 397.108C697.255 398.548 697.999 400.636 697.999 403.372V415H694.759V403.84C694.759 401.872 694.267 400.372 693.283 399.34C692.299 398.284 690.955 397.756 689.251 397.756C687.523 397.756 686.143 398.296 685.111 399.376C684.103 400.456 683.599 402.028 683.599 404.092V415H680.323V395.272H683.599V398.08C684.247 397.072 685.123 396.292 686.227 395.74C687.355 395.188 688.591 394.912 689.935 394.912ZM710.334 415.324C708.822 415.324 707.466 415.072 706.266 414.568C705.066 414.04 704.118 413.32 703.422 412.408C702.726 411.472 702.342 410.404 702.27 409.204H705.654C705.75 410.188 706.206 410.992 707.022 411.616C707.862 412.24 708.954 412.552 710.298 412.552C711.546 412.552 712.53 412.276 713.25 411.724C713.97 411.172 714.33 410.476 714.33 409.636C714.33 408.772 713.946 408.136 713.178 407.728C712.41 407.296 711.222 406.876 709.614 406.468C708.15 406.084 706.95 405.7 706.014 405.316C705.102 404.908 704.31 404.32 703.638 403.552C702.99 402.76 702.666 401.728 702.666 400.456C702.666 399.448 702.966 398.524 703.566 397.684C704.166 396.844 705.018 396.184 706.122 395.704C707.226 395.2 708.486 394.948 709.902 394.948C712.086 394.948 713.85 395.5 715.194 396.604C716.538 397.708 717.258 399.22 717.354 401.14H714.078C714.006 400.108 713.586 399.28 712.818 398.656C712.074 398.032 711.066 397.72 709.794 397.72C708.618 397.72 707.682 397.972 706.986 398.476C706.29 398.98 705.942 399.64 705.942 400.456C705.942 401.104 706.146 401.644 706.554 402.076C706.986 402.484 707.514 402.82 708.138 403.084C708.786 403.324 709.674 403.6 710.802 403.912C712.218 404.296 713.37 404.68 714.258 405.064C715.146 405.424 715.902 405.976 716.526 406.72C717.174 407.464 717.51 408.436 717.534 409.636C717.534 410.716 717.234 411.688 716.634 412.552C716.034 413.416 715.182 414.1 714.078 414.604C712.998 415.084 711.75 415.324 710.334 415.324ZM723.203 415.216C722.579 415.216 722.051 415 721.619 414.568C721.187 414.136 720.971 413.608 720.971 412.984C720.971 412.36 721.187 411.832 721.619 411.4C722.051 410.968 722.579 410.752 723.203 410.752C723.803 410.752 724.307 410.968 724.715 411.4C725.147 411.832 725.363 412.36 725.363 412.984C725.363 413.608 725.147 414.136 724.715 414.568C724.307 415 723.803 415.216 723.203 415.216Z" fill="black"/>
</g>
<g filter="url(#filter4_d_3_66)">
<path d="M491.52 458.688H481.344L479.392 464H477.024L485.184 441.92H487.712L495.84 464H493.472L491.52 458.688ZM490.848 456.832L486.432 444.736L482.016 456.832H490.848ZM501.675 440.32V464H499.435V440.32H501.675ZM508.956 450.368C509.51 449.195 510.385 448.224 511.58 447.456C512.796 446.667 514.236 446.272 515.9 446.272C517.478 446.272 518.897 446.645 520.156 447.392C521.436 448.117 522.428 449.163 523.132 450.528C523.857 451.872 524.22 453.44 524.22 455.232C524.22 457.024 523.857 458.603 523.132 459.968C522.428 461.333 521.436 462.389 520.156 463.136C518.897 463.883 517.478 464.256 515.9 464.256C514.257 464.256 512.828 463.872 511.612 463.104C510.396 462.315 509.51 461.333 508.956 460.16V472.256H506.748V446.528H508.956V450.368ZM521.948 455.232C521.948 453.781 521.66 452.533 521.083 451.488C520.529 450.421 519.761 449.611 518.78 449.056C517.798 448.501 516.689 448.224 515.452 448.224C514.257 448.224 513.158 448.512 512.156 449.088C511.174 449.664 510.396 450.485 509.82 451.552C509.244 452.619 508.956 453.856 508.956 455.264C508.956 456.672 509.244 457.909 509.82 458.976C510.396 460.043 511.174 460.864 512.156 461.44C513.158 462.016 514.257 462.304 515.452 462.304C516.689 462.304 517.798 462.027 518.78 461.472C519.761 460.896 520.529 460.075 521.083 459.008C521.66 457.92 521.948 456.661 521.948 455.232ZM536.661 446.208C537.984 446.208 539.168 446.485 540.213 447.04C541.28 447.595 542.112 448.448 542.709 449.6C543.328 450.731 543.637 452.117 543.637 453.76V464H541.429V454.016C541.429 452.117 540.949 450.667 539.989 449.664C539.051 448.661 537.76 448.16 536.117 448.16C534.432 448.16 533.088 448.693 532.085 449.76C531.083 450.827 530.581 452.395 530.581 454.464V464H528.341V440.32H530.581V449.504C531.136 448.459 531.947 447.648 533.013 447.072C534.101 446.496 535.317 446.208 536.661 446.208ZM547.567 455.232C547.567 453.44 547.919 451.872 548.623 450.528C549.349 449.163 550.341 448.117 551.599 447.392C552.879 446.645 554.319 446.272 555.919 446.272C557.583 446.272 559.013 446.656 560.207 447.424C561.423 448.192 562.298 449.173 562.831 450.368V446.528H565.071V464H562.831V460.128C562.277 461.323 561.391 462.315 560.175 463.104C558.981 463.872 557.551 464.256 555.887 464.256C554.309 464.256 552.879 463.883 551.599 463.136C550.341 462.389 549.349 461.333 548.623 459.968C547.919 458.603 547.567 457.024 547.567 455.232ZM562.831 455.264C562.831 453.856 562.543 452.619 561.967 451.552C561.391 450.485 560.602 449.664 559.599 449.088C558.618 448.512 557.53 448.224 556.335 448.224C555.098 448.224 553.989 448.501 553.007 449.056C552.026 449.611 551.247 450.421 550.671 451.488C550.117 452.533 549.839 453.781 549.839 455.232C549.839 456.661 550.117 457.92 550.671 459.008C551.247 460.075 552.026 460.896 553.007 461.472C553.989 462.027 555.098 462.304 556.335 462.304C557.53 462.304 558.618 462.016 559.599 461.44C560.602 460.864 561.391 460.043 561.967 458.976C562.543 457.909 562.831 456.672 562.831 455.264ZM589.814 451.2V453.088H577.366V451.2H589.814ZM610.549 461.824L616.437 446.528H618.805L611.797 464H609.269L602.261 446.528H604.661L610.549 461.824ZM621.361 452.32C621.361 448.651 621.927 445.803 623.057 443.776C624.188 441.749 626.215 440.736 629.137 440.736C632.06 440.736 634.087 441.749 635.217 443.776C636.348 445.803 636.913 448.651 636.913 452.32C636.913 456.053 636.348 458.944 635.217 460.992C634.087 463.04 632.06 464.064 629.137 464.064C626.193 464.064 624.156 463.04 623.025 460.992C621.916 458.944 621.361 456.053 621.361 452.32ZM634.705 452.32C634.705 450.336 634.567 448.661 634.289 447.296C634.012 445.931 633.468 444.832 632.657 444C631.847 443.168 630.673 442.752 629.137 442.752C627.601 442.752 626.428 443.168 625.617 444C624.807 444.832 624.263 445.931 623.985 447.296C623.708 448.661 623.569 450.336 623.569 452.32C623.569 454.368 623.708 456.085 623.985 457.472C624.263 458.837 624.807 459.936 625.617 460.768C626.428 461.6 627.601 462.016 629.137 462.016C630.673 462.016 631.847 461.6 632.657 460.768C633.468 459.936 634.012 458.837 634.289 457.472C634.567 456.085 634.705 454.368 634.705 452.32ZM641.944 464.16C641.475 464.16 641.08 464 640.76 463.68C640.461 463.36 640.312 462.965 640.312 462.496C640.312 462.027 640.461 461.643 640.76 461.344C641.08 461.024 641.475 460.864 641.944 460.864C642.392 460.864 642.765 461.024 643.064 461.344C643.384 461.643 643.544 462.027 643.544 462.496C643.544 462.965 643.384 463.36 643.064 463.68C642.765 464 642.392 464.16 641.944 464.16ZM645.805 443.072V441.056H651.245V464H648.973V443.072H645.805Z" fill="black"/>
</g>
<defs>
<filter id="filter0_d_3_66" x="93" y="152" width="343" height="343" filterUnits="userSpaceOnUse" color-interpolation-filters="sRGB">
<feFlood flood-opacity="0" result="BackgroundImageFix"/>
<feColorMatrix in="SourceAlpha" type="matrix" values="0 0 0 0 0 0 0 0 0 0 0 0 0 0 0 0 0 0 127 0" result="hardAlpha"/>
<feOffset dy="4"/>
<feGaussianBlur stdDeviation="3.5"/>
<feComposite in2="hardAlpha" operator="out"/>
<feColorMatrix type="matrix" values="0 0 0 0 0.145833 0 0 0 0 0.109983 0 0 0 0 0.109983 0 0 0 0.25 0"/>
<feBlend mode="normal" in2="BackgroundImageFix" result="effect1_dropShadow_3_66"/>
<feBlend mode="normal" in="SourceGraphic" in2="effect1_dropShadow_3_66" result="shape"/>
</filter>
<filter id="filter1_i_3_66" x="162.335" y="217.537" width="221.122" height="213.605" filterUnits="userSpaceOnUse" color-interpolation-filters="sRGB">
<feFlood flood-opacity="0" result="BackgroundImageFix"/>
<feBlend mode="normal" in="SourceGraphic" in2="BackgroundImageFix" result="shape"/>
<feColorMatrix in="SourceAlpha" type="matrix" values="0 0 0 0 0 0 0 0 0 0 0 0 0 0 0 0 0 0 127 0" result="hardAlpha"/>
<feOffset dx="-7" dy="9"/>
<feGaussianBlur stdDeviation="21"/>
<feComposite in2="hardAlpha" operator="arithmetic" k2="-1" k3="1"/>
<feColorMatrix type="matrix" values="0 0 0 0 0.328686 0 0 0 0 0.262639 0 0 0 0 0.516667 0 0 0 0.35 0"/>
<feBlend mode="normal" in2="shape" result="effect1_innerShadow_3_66"/>
</filter>
<filter id="filter2_d_3_66" x="477.698" y="180.686" width="286.116" height="83.554" filterUnits="userSpaceOnUse" color-interpolation-filters="sRGB">
<feFlood flood-opacity="0" result="BackgroundImageFix"/>
<feColorMatrix in="SourceAlpha" type="matrix" values="0 0 0 0 0 0 0 0 0 0 0 0 0 0 0 0 0 0 127 0" result="hardAlpha"/>
<feOffset dy="4"/>
<feGaussianBlur stdDeviation="2"/>
<feComposite in2="hardAlpha" operator="out"/>
<feColorMatrix type="matrix" values="0 0 0 0 0 0 0 0 0 0 0 0 0 0 0 0 0 0 0.25 0"/>
<feBlend mode="normal" in2="BackgroundImageFix" result="effect1_dropShadow_3_66"/>
<feBlend mode="normal" in="SourceGraphic" in2="effect1_dropShadow_3_66" result="shape"/>
</filter>
<filter id="filter3_d_3_66" x="472.828" y="279.604" width="737.397" height="152.756" filterUnits="userSpaceOnUse" color-interpolation-filters="sRGB">
<feFlood flood-opacity="0" result="BackgroundImageFix"/>
<feColorMatrix in="SourceAlpha" type="matrix" values="0 0 0 0 0 0 0 0 0 0 0 0 0 0 0 0 0 0 127 0" result="hardAlpha"/>
<feOffset dy="4"/>
<feGaussianBlur stdDeviation="2"/>
<feComposite in2="hardAlpha" operator="out"/>
<feColorMatrix type="matrix" values="0 0 0 0 0 0 0 0 0 0 0 0 0 0 0 0 0 0 0.25 0"/>
<feBlend mode="normal" in2="BackgroundImageFix" result="effect1_dropShadow_3_66"/>
<feBlend mode="normal" in="SourceGraphic" in2="effect1_dropShadow_3_66" result="shape"/>
</filter>
<filter id="filter4_d_3_66" x="473.024" y="440.32" width="182.221" height="39.936" filterUnits="userSpaceOnUse" color-interpolation-filters="sRGB">
<feFlood flood-opacity="0" result="BackgroundImageFix"/>
<feColorMatrix in="SourceAlpha" type="matrix" values="0 0 0 0 0 0 0 0 0 0 0 0 0 0 0 0 0 0 127 0" result="hardAlpha"/>
<feOffset dy="4"/>
<feGaussianBlur stdDeviation="2"/>
<feComposite in2="hardAlpha" operator="out"/>
<feColorMatrix type="matrix" values="0 0 0 0 0 0 0 0 0 0 0 0 0 0 0 0 0 0 0.25 0"/>
<feBlend mode="normal" in2="BackgroundImageFix" result="effect1_dropShadow_3_66"/>
<feBlend mode="normal" in="SourceGraphic" in2="effect1_dropShadow_3_66" result="shape"/>
</filter>
</defs>
</svg>
